# xmcd CD database file generated by OrangeCD 6.3
#
# Track frame offsets:
#	150
#	16425
#	28675
#	45093
#	59076
#	72889
#	85390
#	98264
#	112266
#	125662
#	143930
#	161543
#	179291
#	190814
#	207093
#	221512
#	235696
#	247097
#	261552
#	274372
#
# Disc length: 3866 seconds
#
# Revision: 0
# Processed by: cddbd v1.5.2PL0 Copyright (c) Steve Scherf et al.
# Submitted via: OrangeCD 6.3
#
DISCID=2a0f1814
DTITLE=Dave Sheriff - Covers 5
DYEAR=1900
DGENRE=Country
TTITLE0=Is This The Way To Amorillo
TTITLE1=Bad Moon Rising
TTITLE2=Mud On The Tires
TTITLE3=I Lost My Heart In Oklahoma
TTITLE4=Ain't Nothin' Shakin'
TTITLE5=Mountain Of Love
TTITLE6=Proud Mary
TTITLE7=No Shoes No Shirt No Problem
TTITLE8=Never Ending Love
TTITLE9=Loving You
TTITLE10=Son Of My Father
TTITLE11=On The Other Side
TTITLE12=If You Love Somebody
TTITLE13=Stand By Me
TTITLE14=She Showed Me A Little Bit More
TTITLE15=Unlocked My Heart
TTITLE16=Me, Marie
TTITLE17=Memphis Women and Chicken
TTITLE18=Like She's Not Yours
TTITLE19=Too Much Drink and Not Enough Sleep
EXTD=
EXTT0=
EXTT1=
EXTT2=
EXTT3=
EXTT4=
EXTT5=
EXTT6=
EXTT7=
EXTT8=
EXTT9=
EXTT10=
EXTT11=
EXTT12=
EXTT13=
EXTT14=
EXTT15=
EXTT16=
EXTT17=
EXTT18=
EXTT19=
PLAYORDER=
